<svg width="140" height="32" viewBox="0 0 140 32" fill="none" xmlns="http://www.w3.org/2000/svg">
<path d="M115.87 11.8584H118.067L116.002 8.45688H113.806L114.716 9.95681H111.797V7.94226H109.601V9.95681H104.056V11.8584H109.591V13.2171H105.625C105.254 13.2213 104.9 13.3722 104.64 13.6368C104.38 13.9014 104.236 14.2583 104.238 14.6292V25.6779H106.435V22.5023H109.601V25.6779H111.797V22.5023H114.907V25.6779H117.104V14.6292C117.105 14.445 117.07 14.2624 117.001 14.0917C116.931 13.9211 116.829 13.7657 116.7 13.6346C116.57 13.5035 116.416 13.3991 116.247 13.3275C116.077 13.2559 115.895 13.2184 115.71 13.2171H111.794V11.8584H115.87ZM109.595 15.1281V17.1207H106.435V15.1281H109.595ZM106.435 20.789V18.8309H109.601V20.789H106.435ZM111.804 20.789V18.8309H114.907V20.789H111.804ZM114.917 15.1407V17.1333H111.804V15.1281L114.917 15.1407Z" fill="#1379BA"/>
<path d="M99.2616 8.457L101.329 11.8585H103.532L101.464 8.457H99.2616Z" fill="#1379BA"/>
<path d="M99.2616 13.2269L101.329 16.6315H103.532L101.464 13.2269H99.2616Z" fill="#1379BA"/>
<path d="M99.2616 25.656H101.464L103.532 18.1532H101.329L99.2616 25.656Z" fill="#1379BA"/>
<path d="M126.788 8.39729C126.416 8.39729 126.06 8.54474 125.798 8.8072C125.536 9.06966 125.388 9.42564 125.388 9.79681V21.0212L124.111 25.6559H126.308L127.585 21.0212V10.2989H138.997V8.39729H126.788Z" fill="#1379BA"/>
<path d="M136.326 19.7824H137.299C137.485 19.7846 137.668 19.7403 137.832 19.6538C137.997 19.5672 138.137 19.441 138.24 19.2866C138.371 19.0961 138.44 18.8709 138.441 18.6402V13.2178C138.44 12.9871 138.371 12.7619 138.24 12.5714C138.137 12.417 137.997 12.2908 137.832 12.2043C137.668 12.1177 137.485 12.0735 137.299 12.0756H133.26L133.596 10.855H131.4L131.061 12.0756H129.693C129.493 12.0742 129.297 12.1264 129.125 12.2269C128.952 12.3274 128.81 12.4724 128.714 12.6467C128.619 12.8166 128.569 13.0078 128.569 13.2022V18.6402C128.569 18.8346 128.619 19.0258 128.714 19.1956C128.809 19.3733 128.95 19.5218 129.123 19.6252C129.296 19.7285 129.494 19.7829 129.696 19.7824H132.376V25.6566H134.616V19.7824H136.326ZM136.326 13.9615V15.1006H130.678V13.9615H136.326ZM130.678 16.7292H136.326V17.8808H130.678V16.7292Z" fill="#1379BA"/>
<path d="M124.88 11.8585L122.812 8.457H120.612L122.677 11.8585H124.88Z" fill="#1379BA"/>
<path d="M124.88 16.6315L122.812 13.2269H120.612L122.677 16.6315H124.88Z" fill="#1379BA"/>
<path d="M122.677 18.1532L120.612 25.656H122.812L124.88 18.1532H122.677Z" fill="#1379BA"/>
<path d="M127.75 25.6555H129.95L131.29 20.7949H129.09L127.75 25.6555Z" fill="#1379BA"/>
<path d="M135.461 20.7949L136.8 25.6555H139L137.66 20.7949H135.461Z" fill="#1379BA"/>
<path d="M11.9357 17.1616C11.9075 19.9167 10.2193 22.6687 6.4757 22.6687C2.73214 22.6687 1 19.9763 1 17.1773C1 14.3783 2.7949 11.5667 6.4757 11.5667C10.1565 11.5667 11.9828 14.3783 11.9357 17.1616ZM2.9769 17.2087C3.02397 18.9597 3.96535 20.8299 6.4757 20.8299C8.98604 20.8299 9.92742 18.9471 9.9588 17.193C9.99018 15.4389 8.98604 13.3898 6.4757 13.3898C3.96535 13.3898 2.93297 15.4138 2.9769 17.2087Z" fill="#1379BA"/>
<path d="M12.8115 25.6434V14.5916H14.5719L14.6974 15.8122C14.9834 15.4274 15.3567 15.116 15.7866 14.9038C16.2165 14.6915 16.6907 14.5845 17.1701 14.5916C19.5142 14.5916 21.0831 16.3363 21.0831 18.5768C21.0831 20.8173 19.6773 22.5619 17.236 22.5619C16.4327 22.5619 15.2434 22.3172 14.7037 21.4825V25.6434H12.8115ZM19.2004 18.5768C19.2138 18.289 19.167 18.0016 19.0629 17.733C18.9588 17.4644 18.7997 17.2205 18.5959 17.0169C18.392 16.8134 18.1479 16.6547 17.8791 16.551C17.6104 16.4473 17.3229 16.4009 17.0352 16.4147C16.7477 16.4013 16.4606 16.4481 16.1922 16.552C15.9238 16.6559 15.6801 16.8147 15.4766 17.0182C15.2731 17.2217 15.1143 17.4654 15.0104 17.7338C14.9065 18.0022 14.8597 18.2893 14.8731 18.5768C14.8945 19.1363 15.1317 19.6659 15.5352 20.0542C15.9386 20.4426 16.4768 20.6595 17.0368 20.6595C17.5967 20.6595 18.1349 20.4426 18.5383 20.0542C18.9418 19.6659 19.179 19.1363 19.2004 18.5768Z" fill="#1379BA"/>
<path d="M23.728 19.2949C23.8504 20.2363 24.6694 20.911 25.9936 20.911C26.6871 20.911 27.5971 20.6505 28.0301 20.2018L29.2414 21.3911C28.4318 22.2226 27.1201 22.6306 25.9622 22.6306C23.3421 22.6306 21.7856 21.0114 21.7856 18.5763C21.7856 16.2637 23.3546 14.5974 25.8242 14.5974C28.369 14.5974 29.9568 16.1664 29.665 19.3043L23.728 19.2949ZM27.8607 17.726C27.7352 16.7407 26.9664 16.248 25.8869 16.248C24.8702 16.248 24.0355 16.7407 23.7594 17.726H27.8607Z" fill="#1379BA"/>
<path d="M36.3894 22.6315V18.4738C36.3894 17.2657 35.7304 16.3463 34.4721 16.3463C33.264 16.3463 32.4419 17.3629 32.4419 18.5711V22.6315H30.4963V14.6078H32.2536L32.3822 15.75C33.1887 14.9593 33.9951 14.5576 34.993 14.5576C36.8758 14.5576 38.3631 15.9603 38.3631 18.4581V22.6315H36.3894Z" fill="#1379BA"/>
<path d="M71.8017 11.614V20.7141H77.472V22.6313H69.7213V11.614H71.8017Z" fill="#1379BA"/>
<path d="M83.945 14.6259H85.7493V22.6308H83.9764L83.8822 21.3128C83.4492 22.1946 82.2725 22.6308 81.4158 22.6308C79.1628 22.6308 77.4965 21.2595 77.4965 18.5923C77.4965 15.925 79.2412 14.5977 81.4597 14.6134C82.4796 14.6134 83.4492 15.0903 83.8822 15.8466L83.945 14.6259ZM79.3793 18.6017C79.3601 18.9063 79.4052 19.2117 79.5116 19.4978C79.618 19.7839 79.7834 20.0445 79.9971 20.2625C80.2107 20.4806 80.4678 20.6513 80.7517 20.7636C81.0356 20.8759 81.3399 20.9273 81.6449 20.9143C84.6039 20.9143 84.6039 16.3016 81.6449 16.3016C81.3405 16.2868 81.0364 16.3365 80.7525 16.4473C80.4687 16.5582 80.2114 16.7277 79.9975 16.9448C79.7837 17.1619 79.6181 17.4217 79.5115 17.7072C79.405 17.9928 79.3599 18.2975 79.3793 18.6017Z" fill="#1379BA"/>
<path d="M89.1256 11.5948V15.8405C89.5712 15.0528 90.8201 14.6229 91.636 14.6229C93.8576 14.6229 95.5082 15.9785 95.5082 18.6018C95.5082 21.1122 93.8262 22.5776 91.5889 22.5776C91.1093 22.6087 90.6298 22.5142 90.1978 22.3034C89.7659 22.0927 89.3963 21.773 89.1256 21.3758L89.0032 22.631H87.2429V11.5948H89.1256ZM89.248 18.6018C89.213 18.9093 89.2433 19.2207 89.337 19.5156C89.4307 19.8105 89.5856 20.0823 89.7917 20.3131C89.9977 20.544 90.2502 20.7287 90.5326 20.8552C90.815 20.9817 91.121 21.0471 91.4304 21.0471C91.7399 21.0471 92.0458 20.9817 92.3282 20.8552C92.6106 20.7287 92.8631 20.544 93.0692 20.3131C93.2752 20.0823 93.4302 19.8105 93.5239 19.5156C93.6176 19.2207 93.6479 18.9093 93.6129 18.6018C93.6305 18.3108 93.5872 18.0194 93.4858 17.746C93.3843 17.4727 93.227 17.2235 93.0238 17.0145C92.8207 16.8054 92.5761 16.641 92.3058 16.5318C92.0355 16.4225 91.7454 16.3709 91.454 16.3802C91.1616 16.3755 90.8714 16.4298 90.6006 16.54C90.3298 16.6502 90.084 16.8139 89.878 17.0214C89.672 17.2288 89.51 17.4757 89.4018 17.7473C89.2935 18.0189 89.2412 18.3096 89.248 18.6018Z" fill="#1379BA"/>
<path d="M64.6469 25.6404H57.1911L42.242 10.6944L49.7134 10.7101L64.6469 25.6404Z" fill="url(#paint0_linear_179_6428)"/>
<path d="M62.7858 12.5616L61.8476 13.4967L60.9125 14.4349L59.9774 15.3669V15.37L49.7038 25.6436H42.248L55.3144 12.5804L56.2495 11.6422L58.1197 9.77197L59.058 10.7071L58.1229 11.6422L59.0548 12.5773L58.1197 13.5124L59.058 14.4506L59.9931 13.5155L59.058 12.5773L59.9931 11.6422L60.9313 12.5804L61.8633 11.6422L62.7858 12.5616Z" fill="url(#paint1_linear_179_6428)"/>
<path d="M61.8696 9.77169L62.8016 10.7037L61.8634 11.6419L60.9314 10.7068L59.9963 11.6419L59.058 10.7068L59.9963 9.77169L59.058 8.83659L59.9963 7.89835L60.9314 8.83659L61.8634 7.89835L62.8047 8.83659L61.8696 9.77169Z" fill="url(#paint2_linear_179_6428)"/>
<path d="M67.4741 7.87335L68.406 8.80531L67.4709 9.74356L66.5358 8.80845L66.3099 9.03752L65.6039 9.74356L64.6625 8.80845L65.6007 7.87335L64.6625 6.9351L65.6007 6L66.5358 6.9351L67.4709 6.00314L68.4092 6.9351L67.4741 7.87335Z" fill="url(#paint3_linear_179_6428)"/>
<path d="M63.7403 9.7697L62.8039 10.7061L63.7203 11.6224L64.6566 10.6861L63.7403 9.7697Z" fill="url(#paint4_linear_179_6428)"/>
<defs>
<linearGradient id="paint0_linear_179_6428" x1="44.1624" y1="27.451" x2="65.8675" y2="5.74272" gradientUnits="userSpaceOnUse">
<stop stop-color="#1068A4"/>
<stop offset="0.13" stop-color="#1067A3"/>
<stop offset="1" stop-color="#1592CE"/>
</linearGradient>
<linearGradient id="paint1_linear_179_6428" x1="44.1653" y1="27.4542" x2="65.8704" y2="5.74914" gradientUnits="userSpaceOnUse">
<stop stop-color="#1068A4"/>
<stop offset="0.13" stop-color="#1067A3"/>
<stop offset="1" stop-color="#1592CE"/>
</linearGradient>
<linearGradient id="paint2_linear_179_6428" x1="43.7073" y1="26.9958" x2="65.4124" y2="5.28758" gradientUnits="userSpaceOnUse">
<stop stop-color="#1068A4"/>
<stop offset="0.13" stop-color="#1067A3"/>
<stop offset="1" stop-color="#1592CE"/>
</linearGradient>
<linearGradient id="paint3_linear_179_6428" x1="45.5587" y1="28.8473" x2="67.2638" y2="7.1422" gradientUnits="userSpaceOnUse">
<stop stop-color="#1068A4"/>
<stop offset="0.13" stop-color="#1067A3"/>
<stop offset="1" stop-color="#1592CE"/>
</linearGradient>
<linearGradient id="paint4_linear_179_6428" x1="45.5702" y1="28.8566" x2="67.2784" y2="7.15148" gradientUnits="userSpaceOnUse">
<stop stop-color="#1068A4"/>
<stop offset="0.13" stop-color="#1067A3"/>
<stop offset="1" stop-color="#1592CE"/>
</linearGradient>
</defs>
</svg>
